<svg xmlns="http://www.w3.org/2000/svg" viewBox="0 0 431.05 78.11"><defs><style>.cls-1{fill:#fff;}</style></defs><title>Fichier 1</title><g id="Calque_2" data-name="Calque 2"><g id="Calque_1-2" data-name="Calque 1"><path class="cls-1" d="M0,0H9.76V60.78H0ZM4.79,0h39V8.11h-39Zm0,27.09H38.52V35.2H4.79Z"/><path class="cls-1" d="M65.05,58.75A18.75,18.75,0,0,1,56.7,51a24.53,24.53,0,0,1-2.87-12.23V0h9.76V39.08q0,6.64,3.83,10.29T78.24,53q7,0,10.88-3.63T93,39.08V0h9.76V38.79A24.53,24.53,0,0,1,99.87,51a18.72,18.72,0,0,1-8.38,7.73A30.25,30.25,0,0,1,78.24,61.4,30,30,0,0,1,65.05,58.75Z"/><path class="cls-1" d="M118.05,0h9.76V60.78h-9.76Zm4.88,52.67h39.81v8.11H122.93Z"/><path class="cls-1" d="M174.23,0H184V60.78h-9.76Zm4.88,52.67h39.81v8.11H179.11Z"/><path class="cls-1" d="M256.72,0h9.77V60.78h-9.77Zm6.61,52.67h15.74q7.71,0,11.94-3.49t4.23-9.85V21.44q0-6.35-4.23-9.84T279.07,8.11H263.33V0h15.45a36.15,36.15,0,0,1,14.31,2.55,19.43,19.43,0,0,1,9,7.44,21.46,21.46,0,0,1,3.12,11.79V39a21.46,21.46,0,0,1-3.12,11.79,19.43,19.43,0,0,1-9.06,7.44,36.32,36.32,0,0,1-14.33,2.55H263.33Z"/><path class="cls-1" d="M329.39,58.75A18.65,18.65,0,0,1,321,51a24.42,24.42,0,0,1-2.87-12.23V0h9.76V39.08q0,6.64,3.82,10.29T342.57,53q7,0,10.89-3.63t3.85-10.29V0h9.76V38.79A24.53,24.53,0,0,1,364.2,51a18.72,18.72,0,0,1-8.38,7.73,34.28,34.28,0,0,1-26.43,0Z"/><path class="cls-1" d="M382.38,0h9.72V60.78h-9.72Zm5.74,52.88H407q7.41,0,10.81-2.47a8.07,8.07,0,0,0,3.4-6.94v-.12A10.88,10.88,0,0,0,420,38a8,8,0,0,0-3.85-3.41,16.56,16.56,0,0,0-6.75-1.19H388.12V25.75h21.25q5.4,0,8.16-2.22T420.28,17q0-4.56-3.06-6.81c-2-1.51-5.11-2.26-9.19-2.26H388.12V0H409.8a27.92,27.92,0,0,1,11.29,2,14.54,14.54,0,0,1,6.8,5.68,16.5,16.5,0,0,1,2.25,8.78,12.85,12.85,0,0,1-1.39,5.87A12.54,12.54,0,0,1,424.52,27a17.19,17.19,0,0,1-7.06,2.62,16.55,16.55,0,0,1,7.27,2.61,14,14,0,0,1,6.32,11.85v.12a15.41,15.41,0,0,1-2.49,8.7,16.1,16.1,0,0,1-7.13,5.81,26.71,26.71,0,0,1-10.82,2.05H388.12Z"/><rect class="cls-1" y="69.98" width="431.05" height="8.13"/></g></g></svg>