<svg xmlns="http://www.w3.org/2000/svg" viewBox="0 0 421.36 342.59"><defs><style>.cls-1{fill:#fff;}</style></defs><title>Fichier 1</title><g id="Calque_2" data-name="Calque 2"><g id="Calque_2-2" data-name="Calque 2"><path class="cls-1" d="M16.39,153.74,17,154,27,159l1.06-41.45-11.7-6Zm9.66-35-.94,37.07-6.72-3.32V114.79Z"/><path class="cls-1" d="M35.55,163.74l.56.27,10.08,5,1.06-41.45-11.7-6Zm9.67-35-.95,37.07-6.72-3.32V124.79Z"/><path class="cls-1" d="M54.59,173.74l.55.27,10.08,5,1.06-41.45-11.69-6Zm9.66-35-1,37.07-6.71-3.32V134.79Z"/><path class="cls-1" d="M78.91,207.79l64.55-29.57,70,32.18h2l67.4-30.9,70.73,30.92,2,0,65.81-32.26V94.77l-.09-1.3L354.05,62.86,283.81,92.64v0l-1,.46-31.43-15.2L243.87,1.72h0A22.16,22.16,0,0,0,236.25,0a12,12,0,0,0-5.08,1.13l-1.46.51h0l-.12,1.88-4.06,62.32L212.6,60.28,144.46,92.57V58.47l-1.42.64L121.23,69V49l-18.84,8.64V40.49L25.54,74.18,3.62,89.11h0v83.1l72.32,35.52M418,94.18,354.53,125.3,285.31,94.18,354,65.05Zm-96.93,18.28a43.45,43.45,0,0,1,7.21,4.94,66.21,66.21,0,0,1,17.28,23.28,66.83,66.83,0,0,1,6.41,27.5,38.82,38.82,0,0,1-3.4,16.76,20.59,20.59,0,0,1-9.84,10.16,18.82,18.82,0,0,1-7.94,1.69,23.2,23.2,0,0,1-4.49-.46L314.18,191a46.58,46.58,0,0,1-3.89-2.93A66.46,66.46,0,0,1,293,164.82a67,67,0,0,1-6.4-27.5,38.82,38.82,0,0,1,3.4-16.76,20.59,20.59,0,0,1,9.84-10.16,18.76,18.76,0,0,1,7.94-1.69,24.85,24.85,0,0,1,8.41,1.55Zm-13.3-4.75a19.84,19.84,0,0,0-8.36,1.78,21.56,21.56,0,0,0-10.32,10.64,39.75,39.75,0,0,0-3.5,17.19,67.92,67.92,0,0,0,6.49,27.92,67.61,67.61,0,0,0,17.55,23.63l.48.39-26.32-11.51v-82L311.07,108A24.48,24.48,0,0,0,307.79,107.71ZM236.25,2a10,10,0,0,1,4.3,1l-1.13.43a7.87,7.87,0,0,1-2.79.51,7.8,7.8,0,0,1-3.11-.64l-1.14-.5A10,10,0,0,1,236.25,2Zm-4.73,2.6,1.21.52a9.77,9.77,0,0,0,3.9.81,9.66,9.66,0,0,0,3.51-.65l2-.76,8.91,90.17a18.91,18.91,0,0,1-11.23,3.42A31.54,31.54,0,0,1,229.5,96.2a32.26,32.26,0,0,1-3.23-1.31l-.61-.3ZM212.64,62.47,225.39,68l-1.81,27.79.55.31a36,36,0,0,0,15.69,4A20.91,20.91,0,0,0,252.71,96l.44-.34-1.52-15.46,28.76,13.91-.08,0,.08,0-66,30.12L145.86,94.12ZM47.23,108.15l-20-8.75,20-13.92Zm29.68,13-27.49-12L76.91,91.46Zm2,0V90.28l63.55-28.71V92.38Zm40.32-51.21L76.91,89v.1L49.23,106.85V84.21l70-32.11ZM100.39,58.54,49.23,81.66h0L27,97.07V75.71l73.35-32.16ZM25,77V98.46L5.88,90.1ZM5.62,171V92.16L25,100.64v.26l.23-.16,22,9.59v.18l.16-.11,29.52,12.89V206Zm73.29,34.63V123.28L142.2,94.69l.26.11v81.68Zm134.51,2.61-69-31.72V95.68l69,30.35Zm68.39-30.43L215.42,208.2V126l66.39-30.31Zm47.77,20q.62,0,1.23,0a19.83,19.83,0,0,0,8.35-1.78,21.58,21.58,0,0,0,10.33-10.64,39.75,39.75,0,0,0,3.5-17.19,71.34,71.34,0,0,0-24.05-51.55c-.62-.52-1.25-1-1.88-1.49l26.49,11.91v81.18Zm89.78-20.88-63.81,31.28V127l63.81-31.28Z"/><path class="cls-1" d="M170.73,120.77l-21.32-10.35v7.68l21.32,11Zm-1,6.66-19.32-9.94V112l19.32,9.39Z"/><path class="cls-1" d="M170.73,131.5l-21.32-10.36v7.68l21.32,11Zm-1,6.65-19.32-9.94v-5.47l19.32,9.38Z"/><path class="cls-1" d="M170.73,160.82l-21.32-10.35v7.68l21.32,11Zm-1,6.66-19.32-9.94v-5.48l19.32,9.39Z"/><path class="cls-1" d="M170.73,179.84v-8.29l-21.32-10.36v7.68Zm-1-1.64-19.32-9.94v-5.47l19.32,9.38Z"/><path class="cls-1" d="M188.32,154.5a12.51,12.51,0,0,0,7.75,3.24,7.56,7.56,0,0,0,3.2-.69,8.16,8.16,0,0,0,3.92-4,14.32,14.32,0,0,0,1.28-6.22A25.24,25.24,0,0,0,196,128.58a12.43,12.43,0,0,0-7.74-3.23,7.4,7.4,0,0,0-3.2.68,8.16,8.16,0,0,0-3.92,4,14.39,14.39,0,0,0-1.28,6.23,25.13,25.13,0,0,0,8.5,18.22Zm12.54-14.43a6.32,6.32,0,0,1-.53,2.67,3.07,3.07,0,0,1-1.48,1.53,2.73,2.73,0,0,1-1.17.25,5.32,5.32,0,0,1-3.23-1.38,11.11,11.11,0,0,1-2.83-3.82,11,11,0,0,1-1.05-4.5,6.17,6.17,0,0,1,.54-2.67,3.05,3.05,0,0,1,1.47-1.53,3,3,0,0,1,1.18-.26,4.27,4.27,0,0,1,1.63.38,22.4,22.4,0,0,1,5,7c.13.3.26.6.38.9A9.81,9.81,0,0,1,200.86,140.07Zm-18-9.15a6.18,6.18,0,0,1,2.95-3.07,5.6,5.6,0,0,1,2.37-.5,9.73,9.73,0,0,1,5.49,2,3.72,3.72,0,0,0-1.54.34,4,4,0,0,0-2,2,7.14,7.14,0,0,0-.64,3.11,12.59,12.59,0,0,0,4.24,9.08,6.29,6.29,0,0,0,3.87,1.62,3.79,3.79,0,0,0,1.59-.34,4.12,4.12,0,0,0,2-2,6.73,6.73,0,0,0,.5-1.61,20.37,20.37,0,0,1,.74,5.25,12.38,12.38,0,0,1-1.08,5.35,6.22,6.22,0,0,1-3,3.08,5.68,5.68,0,0,1-2.36.5A10.6,10.6,0,0,1,189.6,153a23.22,23.22,0,0,1-7.78-16.69A12.39,12.39,0,0,1,182.9,130.92Z"/><path class="cls-1" d="M298.62,131.77a27,27,0,0,0-2.39,11.72,45.79,45.79,0,0,0,4.38,18.84,45.33,45.33,0,0,0,11.85,15.95c4.61,3.85,9.67,6.09,14.49,6.09a13.85,13.85,0,0,0,5.84-1.25,15,15,0,0,0,7.19-7.39A27.16,27.16,0,0,0,342.37,164,45.79,45.79,0,0,0,338,145.17a45.33,45.33,0,0,0-11.85-15.95c-4.62-3.85-9.68-6.09-14.5-6.09a13.8,13.8,0,0,0-5.83,1.25A15,15,0,0,0,298.62,131.77Zm28.74,1.31a45,45,0,0,1,8.71,12.73,19.67,19.67,0,0,1,.7,5.06,12.45,12.45,0,0,1-1.1,5.41,6.43,6.43,0,0,1-3.1,3.21,5.86,5.86,0,0,1-2.49.53,10.68,10.68,0,0,1-6.59-2.8,23.06,23.06,0,0,1-7.73-16.58,12.49,12.49,0,0,1,1.1-5.41A6.43,6.43,0,0,1,320,132a5.86,5.86,0,0,1,2.49-.53A9.41,9.41,0,0,1,327.36,133.08Zm-15.72-8c4.18,0,8.86,2,13.22,5.62l.17.15a9,9,0,0,0-2.58-.41,7,7,0,0,0-2.91.62A7.44,7.44,0,0,0,316,134.8a13.42,13.42,0,0,0-1.2,5.84A22.9,22.9,0,0,0,317,150a22.65,22.65,0,0,0,5.9,8,11.7,11.7,0,0,0,7.23,3,7,7,0,0,0,2.91-.62,7.52,7.52,0,0,0,3.59-3.68,13.64,13.64,0,0,0,1.19-5.85c0-.33,0-.66,0-1A42.31,42.31,0,0,1,340.37,164a25.27,25.27,0,0,1-2.19,10.86,13.08,13.08,0,0,1-6.23,6.44,11.81,11.81,0,0,1-5,1.06c-4.18,0-8.85-2-13.21-5.62a46.14,46.14,0,0,1-15.51-33.26,25.27,25.27,0,0,1,2.19-10.86,13.06,13.06,0,0,1,6.22-6.44A11.85,11.85,0,0,1,311.64,125.13Z"/><path class="cls-1" d="M188.32,189.25a12.44,12.44,0,0,0,7.75,3.23,7.7,7.7,0,0,0,3.2-.68,8.14,8.14,0,0,0,3.92-4,14.32,14.32,0,0,0,1.28-6.22A25.24,25.24,0,0,0,196,163.32a12.43,12.43,0,0,0-7.74-3.23,7.7,7.7,0,0,0-3.2.68,8.22,8.22,0,0,0-3.92,4,14.32,14.32,0,0,0-1.28,6.22,25.18,25.18,0,0,0,8.5,18.23Zm12.54-14.44a6.32,6.32,0,0,1-.53,2.67,3.07,3.07,0,0,1-1.48,1.53,2.73,2.73,0,0,1-1.17.25,5.32,5.32,0,0,1-3.23-1.38,11.56,11.56,0,0,1-3.88-8.32,6.17,6.17,0,0,1,.54-2.67,3.09,3.09,0,0,1,1.47-1.53,2.78,2.78,0,0,1,1.18-.25,4.1,4.1,0,0,1,1.63.38,22.46,22.46,0,0,1,5,7c.13.3.26.6.38.9A9.81,9.81,0,0,1,200.86,174.81Zm-18-9.15a6.26,6.26,0,0,1,2.95-3.07,5.6,5.6,0,0,1,2.37-.5,9.81,9.81,0,0,1,5.49,2,3.88,3.88,0,0,0-1.54.34,4,4,0,0,0-2,2,7.13,7.13,0,0,0-.64,3.1,12.64,12.64,0,0,0,4.24,9.09,6.22,6.22,0,0,0,3.87,1.61,3.79,3.79,0,0,0,1.59-.34,4.12,4.12,0,0,0,2-2,6.59,6.59,0,0,0,.5-1.61,20.49,20.49,0,0,1,.74,5.25,12.42,12.42,0,0,1-1.08,5.36,6.16,6.16,0,0,1-3,3.07,5.52,5.52,0,0,1-2.36.5,10.48,10.48,0,0,1-6.47-2.77A23.18,23.18,0,0,1,181.82,171,12.42,12.42,0,0,1,182.9,165.66Z"/><path class="cls-1" d="M181.67,92l-13.45-5.21-13.4,5.78,1,.46s2.77,1.28,5.61,2.55c1.42.64,2.86,1.27,4,1.75l1.4.59.46.16.17.06a.7.7,0,0,0,.2,0,.78.78,0,0,0,.22,0,8.45,8.45,0,0,0,.94-.35c3-1.24,11.78-5.29,11.78-5.29Zm-10,3.43-2.87,1.26-.92.37-.26.1-.7-.27c-1.36-.55-4-1.75-6.37-2.8-1.17-.52-2.25-1-3-1.38l-.26-.12,11-4.72L179.11,92l-.84.38C176.54,93.2,173.93,94.39,171.71,95.38Z"/><path class="cls-1" d="M198.19,99.21,184.74,94l-13.4,5.77,1,.47L178,102.8c1.42.63,2.85,1.27,4,1.75l1.4.58.45.17.17,0a.78.78,0,0,0,.21,0,1.3,1.3,0,0,0,.21,0c.21-.06.51-.18.94-.35,3-1.25,11.78-5.29,11.79-5.29Zm-10,3.44c-1.11.49-2.12.94-2.88,1.25l-.92.38-.25.09c-.12,0-.38-.13-.71-.27-1.35-.55-4-1.74-6.37-2.79l-3-1.38-.27-.12,11-4.72,10.86,4.2-.84.39C193.05,100.47,190.45,101.66,188.23,102.65Z"/><path class="cls-1" d="M214.66,106.73l-13.45-5.2-13.4,5.77,1,.47,5.62,2.55,4,1.75,1.4.58.46.17.17.05a.62.62,0,0,0,.2,0,1.49,1.49,0,0,0,.22,0c.2-.06.5-.18.94-.35,3-1.25,11.78-5.29,11.78-5.29Zm-10,3.44c-1.11.49-2.12.94-2.88,1.25l-.91.38-.26.09c-.12,0-.37-.13-.7-.27-1.36-.54-4-1.74-6.37-2.79l-3-1.38-.27-.12,11-4.72,10.87,4.2-.84.39C209.53,108,206.92,109.18,204.7,110.17Z"/><path class="cls-1" d="M214.86,119.39l1.4.59.45.17.17,0a.86.86,0,0,0,.21,0,.88.88,0,0,0,.22,0c.2-.06.5-.18.94-.36,3-1.24,11.78-5.29,11.78-5.29l1.07-.49-13.45-5.21-13.4,5.78,1,.47s2.78,1.27,5.62,2.54C212.31,118.28,213.74,118.92,214.86,119.39ZM207,114.78l-.27-.12,11-4.73,10.87,4.21-.84.38c-1.73.79-4.34,2-6.56,3-1.11.5-2.12.94-2.88,1.26l-.91.37-.26.1c-.12,0-.37-.13-.71-.27-1.35-.55-4-1.74-6.36-2.8Z"/><path class="cls-1" d="M197.6,93.09l21.22-10.85L196.9,72.76,175,82.66l1,.46Zm-.69-19.23,19.57,8.46L197.57,92l-20.2-9.31Z"/><path class="cls-1" d="M299.17,94.1,352.89,119l14.69-7.55L312.74,86.76l-14.54,6.9Zm13.58-6.24,52.52,23.61-12.41,6.38L300.55,93.64Z"/><path class="cls-1" d="M331.45,90.32l12.66-5.83-12.27-6-12.23,6,.92.45Zm.39-10.71,9.93,4.85-10.31,4.75-9.58-4.74Z"/><path class="cls-1" d="M337.07,93.18l.92.45L348.91,99l12.66-5.83-12.27-6Zm11.86,4.74-9.59-4.74,10-4.86,9.93,4.85Z"/><path class="cls-1" d="M348.3,82.22,361,76.39l-12.26-6-12.23,6,.91.45Zm.4-10.71,9.93,4.85-10.31,4.75-9.59-4.73Z"/><path class="cls-1" d="M381.93,99a15.21,15.21,0,0,0,5,.8,14.06,14.06,0,0,0,6.35-1.38,6.43,6.43,0,0,0,2-1.56,3.32,3.32,0,0,0,.79-2.08h0V90.23h0a3.32,3.32,0,0,0-.79-2.08A7.57,7.57,0,0,0,391.94,86a15.15,15.15,0,0,0-5-.8,14.06,14.06,0,0,0-6.35,1.38,6.35,6.35,0,0,0-2,1.56,3.21,3.21,0,0,0-.79,2.08v4.51a3.21,3.21,0,0,0,.79,2.08A7.48,7.48,0,0,0,381.93,99Zm12.59-2.77A6.66,6.66,0,0,1,391.61,98a14.43,14.43,0,0,1-4.67.74,13.07,13.07,0,0,1-5.89-1.27,5.39,5.39,0,0,1-1.7-1.3,2.31,2.31,0,0,1-.56-1.45h0V92.51a7.61,7.61,0,0,0,3.14,1.93,15.21,15.21,0,0,0,5,.8,13.93,13.93,0,0,0,6.35-1.38,6.58,6.58,0,0,0,1.8-1.33v2.21h0A2.32,2.32,0,0,1,394.52,96.19Zm-15.17-7.41A6.7,6.7,0,0,1,382.27,87a14.39,14.39,0,0,1,4.67-.74,13.06,13.06,0,0,1,5.88,1.27,5.28,5.28,0,0,1,1.7,1.3,2.32,2.32,0,0,1,.57,1.45,2.28,2.28,0,0,1-.57,1.44,6.49,6.49,0,0,1-2.91,1.83,14.16,14.16,0,0,1-4.67.74A13.08,13.08,0,0,1,381.05,93a5.56,5.56,0,0,1-1.7-1.31,2.26,2.26,0,0,1-.56-1.44h0A2.31,2.31,0,0,1,379.35,88.78Z"/><path class="cls-1" d="M15.72,292.5l-3.16,15.76H0L16.68,239.7H28.59l16.46,68.56H32.36l-3-15.76Zm6.84-37.1-4.82,28h9.64Z"/><path class="cls-1" d="M73.81,308.26h-12V239.64H93.86V247h-20v21.71H88.38v7.4H73.81Z"/><path class="cls-1" d="M122.44,247.09H107.59V239.7h40.65v7.39H133.46v61.17h-11Z"/><path class="cls-1" d="M186,239.7q10.88,0,16,4.76,4.49,4.15,4.48,11.6v7.66a7.16,7.16,0,0,1-1.42,4.3c-3.16,4.18-5,4.76-8.23,6.17a.35.35,0,0,0-.18.45L210,307.78a.35.35,0,0,1-.32.48H198.34A.35.35,0,0,1,198,308l-8.81-25.58a0,0,0,0,0,0,0c-2.32-5-2.08-6-3.16-6h-8.16a.35.35,0,0,0-.35.35v31.13a.35.35,0,0,1-.35.35H165.85a.34.34,0,0,1-.35-.35V240.05a.34.34,0,0,1,.35-.35Zm7.78,16.52c0-4-2.48-10-7.44-10h-8.5a.35.35,0,0,0-.35.35v22.24a.35.35,0,0,0,.35.35h8.5a8.09,8.09,0,0,0,5.27-1.75,5.25,5.25,0,0,0,2.17-4.21Z"/><path class="cls-1" d="M326.66,239.7q10.89,0,16,4.76,4.47,4.15,4.47,11.6v7.66a7.09,7.09,0,0,1-1.42,4.3c-3.16,4.18-5,4.76-8.22,6.17a.36.36,0,0,0-.19.45l13.33,33.14a.35.35,0,0,1-.33.48H339a.35.35,0,0,1-.33-.23l-8.81-25.58v0c-2.32-5-2.09-6-3.17-6H318.5a.35.35,0,0,0-.35.35v31.13a.34.34,0,0,1-.35.35H306.48a.35.35,0,0,1-.35-.35V240.05a.35.35,0,0,1,.35-.35Zm7.79,16.52c0-4-2.48-10-7.44-10H318.5a.35.35,0,0,0-.35.35v22.24a.35.35,0,0,0,.35.35H327a8.13,8.13,0,0,0,5.27-1.75,5.27,5.27,0,0,0,2.17-4.21Z"/><path class="cls-1" d="M280,239.7h10.67l-14.5,68.56h-12.4l-8.43-45.72-7.93,45.72H235L220.54,239.7h10.64L241,287.41l8.27-47.71h11.64l9.81,47.68Z"/><path class="cls-1" d="M377.09,286.51v21.75h-11V239.64h11V269.1L395,239.64h13.88l-16.82,28L412,308.26h-14.3L383,277.4Z"/><path class="cls-1" d="M1.65,342.26v-21h2.8l5,18.11q.91-3.56,2.44-8.71t2.54-9.4h2.81v21h-2V325.48l-4.78,16.78h-2L3.67,325.5v16.76Z"/><path class="cls-1" d="M22.41,342.26H20.12l5.1-21h3l5.1,21H31l-1.29-5.46h-6ZM24,335.57h5.41l-2.72-12.35Z"/><path class="cls-1" d="M36.19,342.26v-21h1.75l8.18,16.61V321.29h1.94v21H46.35L38.15,326v16.25Z"/><path class="cls-1" d="M53.25,342.26H51l5.1-21h3l5.11,21H61.82l-1.3-5.46h-6Zm1.59-6.69h5.4l-2.72-12.35Z"/><path class="cls-1" d="M66.44,336.4v-8.89q0-6.51,6.79-6.51a9.05,9.05,0,0,1,2,.19,5.75,5.75,0,0,1,1.49.53,4,4,0,0,1,1.06.86,4.62,4.62,0,0,1,.73,1.09,5.91,5.91,0,0,1,.44,1.31,11.09,11.09,0,0,1,.22,1.45q.06.7.06,1.56v.15H76.91v-.32c0-.59,0-1,0-1.34s0-.71-.11-1.21a2.7,2.7,0,0,0-.34-1.14,4.36,4.36,0,0,0-.62-.83,2.3,2.3,0,0,0-1.06-.63,6,6,0,0,0-1.56-.18,6,6,0,0,0-2.16.34,3.22,3.22,0,0,0-1.39,1,4.16,4.16,0,0,0-.72,1.34,5.67,5.67,0,0,0-.21,1.59v10.48a5.35,5.35,0,0,0,.18,1.44,3.75,3.75,0,0,0,.62,1.23,2.81,2.81,0,0,0,1.33.9,6.23,6.23,0,0,0,2.17.33,5.35,5.35,0,0,0,2-.35,2.68,2.68,0,0,0,1.26-.93,3.71,3.71,0,0,0,.59-1.22,5.11,5.11,0,0,0,.18-1.4v-3.55H73.91v-1.4h5.45v10h-1l-.67-2A3.77,3.77,0,0,1,75.87,342a6.41,6.41,0,0,1-2.88.64,11,11,0,0,1-1.89-.15,7.37,7.37,0,0,1-1.5-.4,4.74,4.74,0,0,1-1.13-.62,5.72,5.72,0,0,1-.83-.76,4.56,4.56,0,0,1-.56-.88,6.46,6.46,0,0,1-.36-.9,6.75,6.75,0,0,1-.19-.92c0-.34-.07-.62-.08-.83S66.44,336.68,66.44,336.4Z"/><path class="cls-1" d="M83.24,342.26v-21h2.81l5,18.11q.91-3.56,2.43-8.71t2.55-9.4h2.81v21h-2V325.48L92,342.26H90L85.27,325.5v16.76Z"/><path class="cls-1" d="M103.2,342.26v-21h9v1.49h-6.72v7.94h4.8v1.41h-4.8v8.65h6.72v1.48Z"/><path class="cls-1" d="M115.13,342.26v-21h1.75l8.18,16.61V321.29H127v21h-1.71L117.09,326v16.25Z"/><path class="cls-1" d="M133.67,342.26V322.78h-5v-1.49H141v1.49H136v19.48Z"/><path class="cls-1" d="M148.33,336.8v-1.4H153v1.4Z"/><path class="cls-1" d="M162.84,342.26v-21h9.08v1.49h-6.8v7.94h5.35v1.41h-5.35v10.13Z"/><path class="cls-1" d="M173.89,342.26v-21h6.88a8.3,8.3,0,0,1,2.3.29,4.87,4.87,0,0,1,1.6.78,3.79,3.79,0,0,1,1,1.19,5.44,5.44,0,0,1,.52,1.48,9.58,9.58,0,0,1,.14,1.68c0,2.68-1.2,4.37-3.6,5.09l4,10.46h-2.43L180.51,332h-4.34v10.23Zm2.28-11.72h4.59a3.88,3.88,0,0,0,1.65-.32,2.17,2.17,0,0,0,1-.9,4,4,0,0,0,.48-1.22,7,7,0,0,0,.13-1.45,8.61,8.61,0,0,0-.08-1.2,4.84,4.84,0,0,0-.3-1.05,2.66,2.66,0,0,0-.58-.86,2.54,2.54,0,0,0-.94-.55,4.11,4.11,0,0,0-1.37-.21h-4.59Z"/><path class="cls-1" d="M189.9,342.26v-21h9v1.49h-6.72v7.94H197v1.41h-4.8v8.65h6.72v1.48Z"/><path class="cls-1" d="M201.83,342.26v-21h9v1.49h-6.72v7.94h4.8v1.41h-4.8v8.65h6.72v1.48Z"/><path class="cls-1" d="M219.85,342.26v-21h2.81l5,18.11q.92-3.56,2.43-8.71t2.55-9.4h2.81v21h-2V325.48l-4.77,16.78h-2l-4.77-16.76v16.76Z"/><path class="cls-1" d="M239.42,337.11V321.29h2.28v16.25a3.38,3.38,0,0,0,1,2.68,5.12,5.12,0,0,0,3.39.89,4.68,4.68,0,0,0,3.21-.89,3.5,3.5,0,0,0,1-2.68V321.29h2.26v15.82c0,3.65-2.14,5.48-6.44,5.48a11.12,11.12,0,0,1-2.72-.29,5.91,5.91,0,0,1-1.92-.79,4.07,4.07,0,0,1-1.21-1.2,4.64,4.64,0,0,1-.64-1.49A7.54,7.54,0,0,1,239.42,337.11Z"/><path class="cls-1" d="M255.62,337.21l2-.48a6.21,6.21,0,0,0,.43,1.62,5.34,5.34,0,0,0,.83,1.39,3.53,3.53,0,0,0,1.39,1,5.07,5.07,0,0,0,2,.37,4.13,4.13,0,0,0,2.71-.8,2.7,2.7,0,0,0,1-2.24,3.77,3.77,0,0,0-.87-2.33,20.2,20.2,0,0,0-2.59-2.58l-4-3.45a12.12,12.12,0,0,1-2-2.12,3.52,3.52,0,0,1-.71-2.07,3.9,3.9,0,0,1,1.67-3.29,7,7,0,0,1,4.27-1.23,6.65,6.65,0,0,1,4.08,1.16,5.63,5.63,0,0,1,2.06,3.38l.05.2-1.93.49,0-.17a4.47,4.47,0,0,0-1.38-2.57,4,4,0,0,0-2.85-1,4.69,4.69,0,0,0-2.72.7,2.39,2.39,0,0,0-1,2.09,2.85,2.85,0,0,0,.55,1.63,9.4,9.4,0,0,0,1.56,1.71l3.8,3.35.75.66.79.7.69.66a7.51,7.51,0,0,1,.69.74l.53.7a3.2,3.2,0,0,1,.47.8,7.45,7.45,0,0,1,.25.79,3.46,3.46,0,0,1,.12.89,4,4,0,0,1-1.7,3.46,7.37,7.37,0,0,1-4.41,1.22,6.87,6.87,0,0,1-2.5-.43,5.39,5.39,0,0,1-1.9-1.19,6.31,6.31,0,0,1-1.26-1.7A7.48,7.48,0,0,1,255.62,337.21Z"/><path class="cls-1" d="M271,342.26v-21h2.28v21Z"/><path class="cls-1" d="M277.2,336.18V327.4a10.6,10.6,0,0,1,.18-2,5.79,5.79,0,0,1,.64-1.74,4.54,4.54,0,0,1,1.17-1.4,5.74,5.74,0,0,1,1.84-.89,9.2,9.2,0,0,1,2.59-.33q6.06,0,6.06,6.4v.85h-2.17V327a8,8,0,0,0-.19-1.79,4.27,4.27,0,0,0-.62-1.41,2.84,2.84,0,0,0-1.21-1,4.77,4.77,0,0,0-1.87-.33,5.89,5.89,0,0,0-1.72.22,3.39,3.39,0,0,0-1.2.62,2.85,2.85,0,0,0-.73,1,4.41,4.41,0,0,0-.39,1.23,9,9,0,0,0-.1,1.45v9.62a7.78,7.78,0,0,0,.18,1.79,4.25,4.25,0,0,0,.62,1.41,2.77,2.77,0,0,0,1.28,1,5.69,5.69,0,0,0,2.06.34,4.77,4.77,0,0,0,1.87-.34,2.78,2.78,0,0,0,1.21-1,4.27,4.27,0,0,0,.62-1.41,8,8,0,0,0,.19-1.79v-1.44h2.17v1a11.53,11.53,0,0,1-.16,2,6.39,6.39,0,0,1-.59,1.74,4.57,4.57,0,0,1-1.11,1.41,5.27,5.27,0,0,1-1.74.9,8.32,8.32,0,0,1-2.46.33,9.4,9.4,0,0,1-2.63-.33,5.7,5.7,0,0,1-1.85-.9A4.4,4.4,0,0,1,278,340a6,6,0,0,1-.62-1.74A11.32,11.32,0,0,1,277.2,336.18Z"/><path class="cls-1" d="M298.82,336.8v-1.4h4.7v1.4Z"/><path class="cls-1" d="M313.33,342.26v-21h5.55a8.15,8.15,0,0,1,2.37.31,5.05,5.05,0,0,1,1.68.8,4.1,4.1,0,0,1,1.06,1.21,4.65,4.65,0,0,1,.57,1.43,7.23,7.23,0,0,1,.16,1.58,4.9,4.9,0,0,1-.74,2.54,3.93,3.93,0,0,1-2.05,1.73,4.77,4.77,0,0,1,1.59.9,4.16,4.16,0,0,1,1,1.32,6.6,6.6,0,0,1,.53,1.46,6.42,6.42,0,0,1,.16,1.44,13.9,13.9,0,0,1-.12,1.94,6.94,6.94,0,0,1-.51,1.69,4,4,0,0,1-1,1.39,4.74,4.74,0,0,1-1.71.89,8.42,8.42,0,0,1-2.55.34Zm2.28-12h3.66a3.19,3.19,0,0,0,1.44-.3,2.28,2.28,0,0,0,.93-.83,3.89,3.89,0,0,0,.48-1.15,5.87,5.87,0,0,0,.15-1.37q0-3.94-3.69-3.94h-3Zm0,10.55h4.08a3.42,3.42,0,0,0,1.37-.26,2.7,2.7,0,0,0,.94-.69,3.12,3.12,0,0,0,.58-1.07,6,6,0,0,0,.3-1.32A11.51,11.51,0,0,0,323,336a10.69,10.69,0,0,0-.07-1.33,5.24,5.24,0,0,0-.29-1.15,3.09,3.09,0,0,0-.57-1,2.53,2.53,0,0,0-.95-.62,3.89,3.89,0,0,0-1.39-.23h-4.08Z"/><path class="cls-1" d="M328,336.18V327.4a9.29,9.29,0,0,1,.2-2,5.84,5.84,0,0,1,.68-1.75,4.8,4.8,0,0,1,1.22-1.39,5.71,5.71,0,0,1,1.87-.89,10.49,10.49,0,0,1,5.22,0,5.77,5.77,0,0,1,1.88.89,4.76,4.76,0,0,1,1.21,1.39,5.86,5.86,0,0,1,.69,1.75,9.94,9.94,0,0,1,.2,2v8.78q0,6.42-6.59,6.41T328,336.18Zm10.89.42V327c0-3-1.44-4.49-4.31-4.49s-4.3,1.49-4.3,4.49v9.62c0,3,1.43,4.51,4.3,4.51S338.93,339.6,338.93,336.6Z"/><path class="cls-1" d="M344.63,336.18V327.4a9.27,9.27,0,0,1,.21-2,5.84,5.84,0,0,1,.68-1.75,4.76,4.76,0,0,1,1.21-1.39,5.77,5.77,0,0,1,1.88-.89,10.49,10.49,0,0,1,5.22,0,5.77,5.77,0,0,1,1.88.89,4.76,4.76,0,0,1,1.21,1.39,5.84,5.84,0,0,1,.68,1.75,9.27,9.27,0,0,1,.21,2v8.78q0,6.42-6.59,6.41T344.63,336.18Zm10.9.42V327c0-3-1.44-4.49-4.31-4.49s-4.31,1.49-4.31,4.49v9.62c0,3,1.44,4.51,4.31,4.51S355.53,339.6,355.53,336.6Z"/><path class="cls-1" d="M361.71,342.26v-21H364v11l6.88-11h2.36l-5.34,8.65,6.56,12.32H372l-5.52-11.07L364,334.87v7.39Z"/><path class="cls-1" d="M376.41,342.26v-21h2.28v21Z"/><path class="cls-1" d="M383.09,342.26v-21h1.75L393,337.9V321.29H395v21h-1.71L385.05,326v16.25Z"/><path class="cls-1" d="M398.86,336.4v-8.89q0-6.51,6.8-6.51a9.12,9.12,0,0,1,2,.19,5.67,5.67,0,0,1,1.48.53,4.05,4.05,0,0,1,1.07.86,4.9,4.9,0,0,1,.72,1.09,5.91,5.91,0,0,1,.44,1.31,11.09,11.09,0,0,1,.22,1.45q.06.7.06,1.56v.15h-2.28v-.32c0-.59,0-1,0-1.34s-.05-.71-.11-1.21a2.87,2.87,0,0,0-.33-1.14,4.92,4.92,0,0,0-.63-.83,2.21,2.21,0,0,0-1.05-.63,6,6,0,0,0-1.56-.18,6,6,0,0,0-2.16.34,3.25,3.25,0,0,0-1.4,1,4,4,0,0,0-.71,1.34,5.32,5.32,0,0,0-.22,1.59v10.48a5.35,5.35,0,0,0,.18,1.44,3.75,3.75,0,0,0,.62,1.23,2.81,2.81,0,0,0,1.33.9,6.29,6.29,0,0,0,2.18.33,5.29,5.29,0,0,0,2-.35,2.68,2.68,0,0,0,1.26-.93,4,4,0,0,0,.6-1.22,5.54,5.54,0,0,0,.17-1.4v-3.55h-3.17v-1.4h5.45v10h-1l-.67-2a3.73,3.73,0,0,1-1.81,1.73,6.36,6.36,0,0,1-2.87.64,11.09,11.09,0,0,1-1.9-.15A7.26,7.26,0,0,1,402,342a4.81,4.81,0,0,1-1.14-.62,5.6,5.6,0,0,1-.82-.76,4.16,4.16,0,0,1-.57-.88,6.46,6.46,0,0,1-.36-.9A5.56,5.56,0,0,1,399,338a6.13,6.13,0,0,1-.08-.83C398.86,336.92,398.86,336.68,398.86,336.4Z"/></g></g></svg>