<svg xmlns="http://www.w3.org/2000/svg" viewBox="0 0 141.94 141.94"><defs><style>.cls-1{fill:#fff;}</style></defs><title>Fichier 1</title><g id="Calque_2" data-name="Calque 2"><g id="Calque_2-2" data-name="Calque 2"><path class="cls-1" d="M116.35,0H25.58A25.58,25.58,0,0,0,0,25.58v90.77a25.59,25.59,0,0,0,25.58,25.59H61.52V95.19H44.1v-19H61.52V58.81S59.74,39.58,79.4,33.91a17.78,17.78,0,0,1,4.92-.65h18.84V51.45H93.4c-6.69,0-10.93,5.81-10.21,12.46V76.23l19-.39L99.06,95.19H83.19v46.75h33.16a25.59,25.59,0,0,0,25.59-25.59V25.58A25.59,25.59,0,0,0,116.35,0Z"/></g></g></svg>