<svg xmlns="http://www.w3.org/2000/svg" viewBox="0 0 141.94 141.94"><defs><style>.cls-1{fill:#fff;}</style></defs><title>Fichier 6</title><g id="Calque_2" data-name="Calque 2"><g id="Calque_2-2" data-name="Calque 2"><path class="cls-1" d="M71,47.61h0a23.36,23.36,0,0,1,0,46.71h0a23.36,23.36,0,0,1,0-46.71h0m24.24,6.2a4.89,4.89,0,1,1,4.89-4.89,4.89,4.89,0,0,1-4.89,4.89m-5.34-17.1H52.06A15.36,15.36,0,0,0,36.71,52.06V89.87a15.36,15.36,0,0,0,15.35,15.36H89.87a15.36,15.36,0,0,0,15.36-15.36V52.06A15.36,15.36,0,0,0,89.87,36.71"/><path class="cls-1" d="M71,55.61a15.35,15.35,0,1,0,10.86,4.5A15.29,15.29,0,0,0,71,55.61"/><path class="cls-1" d="M52.06,28.71H89.88a23.35,23.35,0,0,1,23.35,23.35V89.87a23.37,23.37,0,0,1-23.35,23.36H52.06A23.37,23.37,0,0,1,28.71,89.87V52.06A23.35,23.35,0,0,1,52.06,28.71h0M116.36,0H25.58A25.58,25.58,0,0,0,0,25.58v90.77a25.59,25.59,0,0,0,25.58,25.59h90.78a25.59,25.59,0,0,0,25.58-25.59V25.58A25.58,25.58,0,0,0,116.36,0"/></g></g></svg>