<svg xmlns="http://www.w3.org/2000/svg" viewBox="0 0 141.27 141.27"><defs><style>.cls-1{fill:#fff;}</style></defs><title>Fichier 7</title><g id="Calque_2" data-name="Calque 2"><g id="Calque_2-2" data-name="Calque 2"><path class="cls-1" d="M119.11,0H23.39A23.39,23.39,0,0,0,0,23.39v93.47a24.41,24.41,0,0,0,24.4,24.41h93.83a23,23,0,0,0,23-23V22.15A22.16,22.16,0,0,0,119.11,0ZM14.62,84.89a.43.43,0,0,1-.74.3c-3.3-3.33-3.5-11.51,0-15.41a.44.44,0,0,1,.76.29Zm6,4.75a.43.43,0,0,1-.47.43c-2.45-.19-3.25-1.11-3.25-3.58q0-8.83,0-17.66c0-2.78.27-3.25,3.18-4a.44.44,0,0,1,.54.42Zm7,1.36a.43.43,0,0,1-.45.43l-3.44-.19a.44.44,0,0,1-.41-.43V67.07c0-3.67.4-4.06,4-3.1a.43.43,0,0,1,.31.42Zm5,.51c-1.76,0-2.51-.38-2.48-2.36.12-7.44,0-14.89,0-22.34,0-.43,0-.86.09-1.42a.43.43,0,0,1,.55-.38l1.3.39a.42.42,0,0,0,.51-.23l1.24-2.8,1.23.23v0c0,8.86-.07,17.73,0,26.6C35.13,91.27,34.25,91.49,32.58,91.51Zm9.85-.67a.42.42,0,0,1-.42.43H38.15a.44.44,0,0,1-.43-.4c0-.69-.1-1.38-.1-2.06,0-9.72.17-19.45-.1-29.16-.09-3.39,1.71-4.82,4.26-6.41a.42.42,0,0,1,.65.36Zm7.7-37.61V87.76c0,3.93-.44,4.36-4.51,3.41a.44.44,0,0,1-.34-.42V55c0-4,0-4.16,4.39-4.55a.43.43,0,0,1,.46.43Zm5.14,38.24c-1.43,0-2.6.09-2.56-2,0-1.56,0-3.12.06-4.68,0-4.68,0-9.36,0-14.05s0-9.15,0-13.72c0-1.53,0-3.05,0-4.57,0-1-.63-2.43,1.43-2.34,2.94.12,3.59.48,3.59,2.57q0,11.49,0,23c0,4.61-.1,9.23,0,13.83C57.91,91.61,56.67,91.46,55.27,91.47Zm5.79-.18a1.61,1.61,0,0,1-.59-1.21c0-12.42,0-24.84,0-37.69A.43.43,0,0,1,61,52c2.17.71,2.47-1.45,3.71-2.36a.43.43,0,0,1,.69.31c0,.49.08,1,.08,1.44q0,18.74,0,37.47A2.84,2.84,0,0,1,61.06,91.29Zm11.56-.43a.43.43,0,0,1-.25.39,1,1,0,0,1-.35.12c-4,.56-4.2.39-4.2-3.62V49.85c0-3.89.55-4.85,4.21-6.27a.43.43,0,0,1,.59.4Zm44,.37c-13.12.26-26.26.16-39.39.25-1.5,0-1.93-.56-1.93-2q.06-22.91,0-45.79a2.19,2.19,0,0,1,2-2.47c15.24-4,29.85,5.58,32.26,21.28a2.75,2.75,0,0,0,.11.41.45.45,0,0,0,.46.28,48.93,48.93,0,0,1,5.79-.62,14.34,14.34,0,0,1,14,13.77C130.11,84.19,124.2,91.08,116.63,91.23Z"/></g></g></svg>