<svg xmlns="http://www.w3.org/2000/svg" viewBox="0 0 141.94 141.94"><defs><style>.cls-1{fill:#fff;}</style></defs><title>Fichier 8</title><g id="Calque_2" data-name="Calque 2"><g id="Calque_2-2" data-name="Calque 2"><path class="cls-1" d="M46.05,97.48A12.64,12.64,0,0,1,33.4,84.84V60.16A12.64,12.64,0,0,1,46.05,47.52h50A12.64,12.64,0,0,1,108.7,60.16V84.84A12.64,12.64,0,0,1,96.06,97.48h-50M116.35,0H25.58A25.58,25.58,0,0,0,0,25.58v90.77a25.59,25.59,0,0,0,25.58,25.59h90.77a25.59,25.59,0,0,0,25.59-25.59V25.58A25.59,25.59,0,0,0,116.35,0"/><path class="cls-1" d="M61.15,59.88a.59.59,0,0,0-.58.58V84.54a.59.59,0,0,0,.58.58.67.67,0,0,0,.29-.08L82.29,73a.58.58,0,0,0,0-1L61.44,60a.67.67,0,0,0-.29-.08"/></g></g></svg>